<?xml version="1.0" encoding="utf-8"?>
<!-- Generator: Adobe Illustrator 16.0.1, SVG Export Plug-In . SVG Version: 6.00 Build 0)  -->
<!DOCTYPE svg PUBLIC "-//W3C//DTD SVG 1.1//EN" "http://www.w3.org/Graphics/SVG/1.1/DTD/svg11.dtd">
<svg version="1.1" id="Calque_1" xmlns="http://www.w3.org/2000/svg" xmlns:xlink="http://www.w3.org/1999/xlink" x="0px" y="0px"
	 width="63.053px" height="89.573px" viewBox="20.372 5.403 63.053 89.573" enable-background="new 20.372 5.403 63.053 89.573"
	 xml:space="preserve">
<path fill="#F7B63F" d="M55.102,50.564c0.883,0,1.742-0.186,2.553-0.549c1.519-0.683,2.68-1.916,3.271-3.472
	c0.591-1.557,0.539-3.25-0.146-4.769c-1.004-2.23-3.234-3.672-5.684-3.672c-0.883,0-1.742,0.185-2.553,0.55
	c-1.52,0.682-2.679,1.915-3.27,3.472c-0.59,1.556-0.539,3.249,0.144,4.767C50.422,49.123,52.652,50.564,55.102,50.564z
	 M51.145,42.834c0.4-1.057,1.188-1.894,2.219-2.356c0.552-0.248,1.135-0.374,1.732-0.374c1.663,0,3.178,0.979,3.86,2.493
	c0.464,1.031,0.499,2.181,0.099,3.237c-0.402,1.056-1.189,1.895-2.221,2.357c-0.552,0.248-1.135,0.374-1.732,0.374
	c-1.664,0-3.178-0.979-3.858-2.494C50.777,45.04,50.743,43.891,51.145,42.834z"/>
<circle fill="#F7B63F" cx="55.098" cy="44.334" r="1.513"/>
<circle fill="#F7B63F" cx="51.072" cy="55.591" r="1.077"/>
<path fill="#F7B63F" d="M37.881,78.285c0.382-2.602-1.425-5.027-4.027-5.41c-2.625-0.391-5.035,1.477-5.409,4.027
	c-0.185,1.261,0.132,2.518,0.893,3.539c0.761,1.021,1.875,1.688,3.135,1.871c0.233,0.033,0.465,0.051,0.694,0.051
	C35.515,82.363,37.542,80.609,37.881,78.285z M35.902,77.995c-0.216,1.483-1.62,2.551-3.14,2.339
	c-0.732-0.107-1.378-0.493-1.82-1.086c-0.442-0.594-0.626-1.323-0.519-2.055c0.198-1.352,1.375-2.369,2.737-2.369
	c0.134,0,0.269,0.01,0.404,0.029C35.075,75.076,36.124,76.484,35.902,77.995z"/>
<circle fill="#F7B63F" cx="33.163" cy="77.594" r="1.257"/>
<path fill="#F7B63F" d="M24.72,85.043c0.007,0.012,0.018,0.02,0.025,0.03v3.518c0,3.521,2.864,6.386,6.384,6.386h2.029h2.039h43.727
	c0.553,0,1-0.447,1-1v-3.142c0-0.553-0.447-1-1-1h-3.062v-5.171h1.871c0.553,0,1-0.447,1-1v-0.988c0-0.553-0.447-1-1-1h-16.78
	c-0.552,0-1,0.447-1,1v0.988c0,0.553,0.448,1,1,1h1.871v5.171H41.458c0.08-0.401,0.124-0.817,0.124-1.244v-1.565
	c3.468-3.33,4.369-8.563,2.196-12.869h17.216v2.682c0,0.553,0.447,1,1,1h15.074c0.554,0,1-0.447,1-1v-2.682h3.056
	c1.269,0,2.301-1.031,2.301-2.299c0-1.271-1.032-2.303-2.301-2.303h-39.08c-0.5-1.947-0.45-3.996,0.162-5.934
	c0.814-2.577,2.582-4.752,4.909-6.1c0.737,1.508,2.271,2.479,3.958,2.479c0.625,0,1.233-0.131,1.808-0.39
	c1.074-0.483,1.896-1.356,2.312-2.457c0.178-0.467,0.255-0.949,0.271-1.432c3.195-0.24,6.007-1.845,7.856-4.234l0.259,0.047
	l1.733,3.854c0.004,0.01,0.013,0.016,0.019,0.025c0.008,0.021,0.005,0.047,0.017,0.068l1.84,4.094
	c0.108,0.242,0.311,0.431,0.559,0.523c0.113,0.045,0.234,0.065,0.354,0.065c0.141,0,0.28-0.029,0.412-0.088l0.2-0.091l0.763,1.695
	c0.108,0.241,0.311,0.43,0.558,0.523c0.114,0.044,0.235,0.064,0.354,0.064c0.142,0,0.28-0.028,0.41-0.088l4.093-1.841
	c0.241-0.108,0.432-0.31,0.524-0.558s0.086-0.522-0.022-0.766l-0.765-1.697l0.228-0.102c0.504-0.227,0.729-0.818,0.502-1.322
	l-1.842-4.092c-0.005-0.01-0.013-0.016-0.019-0.023c-0.009-0.023-0.007-0.049-0.017-0.071l-1.735-3.857l1.364-2.257
	c0.017-0.027,0.018-0.058,0.031-0.086c0.014-0.027,0.037-0.048,0.047-0.077c0.015-0.035,0.01-0.072,0.02-0.108
	c0.018-0.064,0.027-0.127,0.031-0.192c0.005-0.063,0-0.123-0.008-0.186c-0.01-0.066-0.022-0.128-0.045-0.191
	c-0.01-0.028-0.008-0.06-0.021-0.087L61.382,18.485c-0.228-0.505-0.821-0.727-1.321-0.502l-1.299,0.584l-3.672-8.158l1.053-0.474
	c0.504-0.227,0.729-0.818,0.502-1.322l-1.18-2.619c-0.107-0.242-0.309-0.431-0.557-0.524c-0.248-0.097-0.523-0.087-0.766,0.022
	L43.504,10.28c-0.242,0.109-0.431,0.31-0.524,0.558c-0.094,0.248-0.085,0.523,0.023,0.766l1.179,2.617
	c0.167,0.37,0.531,0.589,0.912,0.589c0.137,0,0.277-0.028,0.41-0.088l1.051-0.473l3.672,8.158l-1.297,0.584
	c-0.242,0.109-0.431,0.31-0.525,0.558c-0.094,0.248-0.086,0.523,0.023,0.765l4.294,9.544C41.729,34.519,31.795,40.35,25.86,49.769
	l-0.091,0.144c-0.083,0.13-0.165,0.261-0.233,0.375c-6.378,10.194-6.883,23.18-1.319,33.885
	C24.373,84.473,24.541,84.764,24.72,85.043z M70.889,59.951l-0.32-0.715l2.269-1.02l0.32,0.713L70.889,59.951z M45.237,11.693
	l8.814-3.967l0.357,0.795l-8.814,3.966L45.237,11.693z M53.1,11.305l0.166-0.075l3.672,8.158l-4.887,2.199l-3.672-8.158L53.1,11.305
	z M33.158,92.977h-2.029c-2.417,0-4.384-1.968-4.384-4.386V75.852c0-2.418,1.967-4.386,4.384-4.386h4.068
	c2.418,0,4.385,1.968,4.385,4.386v12.739c0,2.418-1.967,4.386-4.385,4.386H33.158z M70.727,86.693
	c-0.281-0.475-0.793-0.795-1.384-0.795s-1.103,0.32-1.384,0.795h-3.137v-1.856h9.039v1.856H70.727z M64.823,88.693h3.423
	c0.289,0.268,0.672,0.435,1.097,0.435s0.808-0.167,1.097-0.435h3.422v1.142h-9.037L64.823,88.693L64.823,88.693z M63.823,91.835
	h11.038h3.062v1.142H39.826c0.328-0.347,0.616-0.729,0.86-1.142H63.823z M76.068,75.837H62.993v-1.683h13.075V75.837z
	 M81.424,71.855c0,0.166-0.135,0.299-0.301,0.299h-4.055H61.993H42.961c-0.059-0.182-0.127-0.354-0.178-0.54
	c-0.005-0.021-0.015-0.04-0.022-0.062h38.362C81.289,71.555,81.424,71.689,81.424,71.855z M53.326,56.445
	c-0.229,0.602-0.678,1.078-1.266,1.343c-1.188,0.535-2.658-0.033-3.188-1.207c-0.264-0.587-0.284-1.241-0.055-1.845
	c0.229-0.602,0.677-1.078,1.264-1.342c0.314-0.143,0.646-0.213,0.988-0.213c0.947,0,1.811,0.557,2.199,1.422
	C53.534,55.189,53.555,55.844,53.326,56.445z M66.727,53.657l-1.131-2.515l4.521-2.033l1.131,2.513L66.727,53.657z M67.541,55.484
	l4.518-2.034l1.063,2.36l-4.521,2.033L67.541,55.484z M59.969,20.218L70.932,44.58l-5.553,2.498c0.164-0.77,0.256-1.565,0.25-2.384
	c-0.021-2.936-1.186-5.687-3.277-7.747c-2.012-1.982-4.65-3.087-7.461-3.149l-4.228-9.393L59.969,20.218z M27.241,51.331
	c0.07-0.117,0.144-0.233,0.217-0.349l0.126-0.2c5.866-9.308,15.955-14.914,26.986-14.996c0.022,0,0.047,0,0.07,0
	c2.375,0,4.612,0.917,6.307,2.586c1.711,1.686,2.664,3.937,2.682,6.338c0.035,4.833-3.771,8.806-8.555,9.035
	c-0.721-1.56-2.285-2.563-4.004-2.563c-0.626,0-1.234,0.131-1.809,0.389c-1.074,0.484-1.895,1.356-2.313,2.459
	c-0.181,0.477-0.26,0.971-0.271,1.465c-3.033,1.559-5.349,4.27-6.378,7.523c-0.959,3.034-0.753,6.301,0.578,9.207
	c0.273,0.976,0.633,1.896,1.071,2.735c1.494,2.875,1.293,6.274-0.366,8.924v-8.032c0-3.521-2.864-6.386-6.385-6.386h-4.068
	c-3.52,0-6.384,2.864-6.384,6.386v4.656C20.897,71.011,21.762,60.09,27.241,51.331z"/>
</svg>
